<svg width="840" height="216" viewBox="0 0 840 216" fill="none" xmlns="http://www.w3.org/2000/svg">
<path d="M27.2465 94.4038C14.9596 93.6636 5.12675 89.4098 4.435 100.876L0.0329008 173.839C-0.658857 185.305 9.65347 181.611 21.9404 182.351C34.2273 183.091 44.0208 187.996 44.7125 176.531L49.1146 103.567C49.8064 92.1012 39.5334 95.1439 27.2465 94.4038Z" fill="#4F709C"/>
<path d="M97.4111 27.5938C99.9177 8.05317 116.804 -2.13059 136.36 0.374079C147.353 1.78211 157.434 7.79702 163.275 16.7045C171.176 9.55705 182.449 6.27697 193.442 7.68499C212.998 10.1897 226.768 24.2996 224.261 43.8403C221.416 66.0215 191.723 88.0925 158.312 111.512C153.821 114.695 147.584 113.896 144.041 109.685C117.727 78.6153 94.5657 49.775 97.4111 27.5938Z" fill="#FF3C38"/>
<path d="M190.342 167.684L154.087 168.7L117.685 163.307C116.514 163.237 115.357 162.954 114.212 162.458L98.9017 156.095C96.1935 154.972 94.9901 151.912 96.1143 149.206C97.2385 146.5 100.413 145.198 103.115 146.427L114.754 151.716C115.898 152.211 117.262 152.614 118.539 152.69L146.517 154.376C153.431 154.792 159.409 149.498 159.826 142.589C160.14 137.38 157.125 132.505 152.347 130.297L80.3863 98.4379C78.1037 97.3402 75.5762 96.7613 73.0231 96.6075L56.0023 95.5822L50.2176 191.461L116.821 214.783C121.106 216.321 125.799 216.39 130.151 215.052L184.257 199.535L210.442 190.231C211.154 178.432 202.15 168.395 190.342 167.684Z" fill="#4F709C"/>
<path d="M288.728 204.291C271.549 204.291 257.806 194.645 251.426 182.385L269.259 171.268C272.858 178.952 279.893 184.019 288.891 184.019C296.417 184.019 300.998 180.423 300.998 175.028C300.998 157.863 255.679 165.873 255.679 132.524C255.679 112.907 271.549 103.588 287.092 103.588C299.199 103.588 310.16 109.147 317.359 117.484L302.962 131.216C298.053 125.821 292.491 122.715 286.928 122.715C281.693 122.715 277.439 125.331 277.439 130.889C277.439 147.891 322.594 138.9 322.594 175.192C322.594 193.501 307.052 204.291 288.728 204.291Z" fill="#4F709C"/>
<path d="M382.837 204.291C355.024 204.291 332.447 181.731 332.447 153.94C332.447 126.148 355.024 103.588 382.837 103.588C410.814 103.588 433.228 126.148 433.228 153.94C433.228 181.731 410.814 204.291 382.837 204.291ZM382.837 183.202C399.525 183.202 412.123 170.451 412.123 153.94C412.123 137.428 399.525 124.677 382.837 124.677C366.313 124.677 353.715 137.428 353.715 153.94C353.715 170.451 366.313 183.202 382.837 183.202Z" fill="#4F709C"/>
<path d="M519.551 104.896H540.984V202.983H518.733L470.633 137.919V202.983H449.037V104.896H471.287L519.551 169.797V104.896Z" fill="#4F709C"/>
<path d="M622.01 104.896H643.442V202.983H622.01V163.421H582.09V202.983H560.494V104.896H582.09V144.294H622.01V104.896Z" fill="#4F709C"/>
<path d="M709.667 204.291C681.854 204.291 659.276 181.731 659.276 153.94C659.276 126.148 681.854 103.588 709.667 103.588C737.644 103.588 760.058 126.148 760.058 153.94C760.058 181.731 737.644 204.291 709.667 204.291ZM709.667 183.202C726.355 183.202 738.953 170.451 738.953 153.94C738.953 137.428 726.355 124.677 709.667 124.677C693.143 124.677 680.545 137.428 680.545 153.94C680.545 170.451 693.143 183.202 709.667 183.202Z" fill="#4F709C"/>
<path d="M806.134 204.291C788.955 204.291 775.212 194.645 768.831 182.385L786.664 171.268C790.264 178.952 797.299 184.019 806.297 184.019C813.823 184.019 818.404 180.423 818.404 175.028C818.404 157.863 773.085 165.873 773.085 132.524C773.085 112.907 788.955 103.588 804.497 103.588C816.604 103.588 827.566 109.147 834.765 117.484L820.367 131.216C815.459 125.821 809.896 122.715 804.334 122.715C799.098 122.715 794.845 125.331 794.845 130.889C794.845 147.891 840 138.9 840 175.192C840 193.501 824.457 204.291 806.134 204.291Z" fill="#4F709C"/>
<path d="M282.245 42.012L301.769 72.2008H295.77L276.9 42.2299H262.721V72.2008H257.486V6.80981H279.845C289.771 6.80981 297.733 14.7657 297.733 24.6833C297.733 33.7291 290.971 41.0311 282.245 42.012ZM262.721 37.2166H279.518C286.826 37.2166 292.498 31.8764 292.498 24.6833C292.498 17.3814 286.826 12.0411 279.518 12.0411H262.721V37.2166Z" fill="#213555"/>
<path d="M347.214 11.9321H317.546V36.9987H343.505V42.012H317.546V67.0785H347.214V72.2008H312.311V6.80981H347.214V11.9321Z" fill="#213555"/>
<path d="M378.694 73.0727C368.987 73.0727 361.025 67.7324 357.862 60.1035L362.661 57.3788C364.951 63.482 370.841 67.8414 378.804 67.8414C386.766 67.8414 393.419 63.482 393.419 55.7441C393.419 38.4155 360.807 43.5378 360.807 22.5037C360.807 11.9321 369.205 5.93793 378.585 5.93793C385.893 5.93793 392.001 9.42546 395.382 13.8938L391.238 17.2724C388.729 13.6759 384.148 11.1692 378.694 11.1692C372.15 11.1692 366.042 14.7657 366.042 22.1767C366.042 39.0694 398.654 33.8381 398.654 55.5261C398.654 66.9695 389.274 73.0727 378.694 73.0727Z" fill="#213555"/>
<path d="M442.146 37.9795H475.849V39.5053C475.849 58.0328 460.798 73.0727 442.256 73.0727C423.604 73.0727 408.662 58.0328 408.662 39.5053C408.662 20.9779 423.604 5.93793 442.256 5.93793C454.69 5.93793 465.597 12.695 471.378 22.8306L466.797 25.3373C461.997 16.8364 452.835 11.1692 442.256 11.1692C426.549 11.1692 413.897 23.8115 413.897 39.5053C413.897 55.1991 426.549 67.8414 442.256 67.8414C456.762 67.8414 468.651 57.0519 470.396 42.9928H442.146V37.9795Z" fill="#213555"/>
<path d="M528.234 72.2008L522.672 56.398H492.132L486.569 72.2008H480.788L504.457 6.80981H510.237L533.906 72.2008H528.234ZM493.877 51.3847H520.926L507.402 13.022L493.877 51.3847Z" fill="#213555"/>
<path d="M576.362 6.80981V12.0411H557.929V72.2008H552.693V12.0411H534.26V6.80981H576.362Z" fill="#213555"/>
<path d="M624.268 72.2008L618.705 56.398H588.165L582.603 72.2008H576.822L600.49 6.80981H606.271L629.939 72.2008H624.268ZM589.91 51.3847H616.96L603.435 13.022L589.91 51.3847Z" fill="#213555"/>
<path d="M685.879 6.80981H691.115V72.2008H686.534L644.214 16.0735V72.2008H638.979V6.80981H643.56L685.879 62.9371V6.80981Z" fill="#213555"/>
<path d="M708.171 72.2008V6.80981H725.186C743.292 6.80981 757.907 21.4138 757.907 39.5053C757.907 57.5968 743.292 72.2008 725.186 72.2008H708.171ZM713.406 66.9695H725.077C740.456 66.9695 752.672 55.0902 752.672 39.5053C752.672 23.9205 740.456 12.0411 725.077 12.0411H713.406V66.9695Z" fill="#213555"/>
<path d="M803.506 73.0727C784.964 73.0727 769.912 58.0328 769.912 39.5053C769.912 20.9779 784.964 5.93793 803.506 5.93793C822.048 5.93793 837.099 20.9779 837.099 39.5053C837.099 58.0328 822.048 73.0727 803.506 73.0727ZM803.506 67.8414C819.212 67.8414 831.864 55.1991 831.864 39.5053C831.864 23.8115 819.212 11.1692 803.506 11.1692C787.799 11.1692 775.147 23.8115 775.147 39.5053C775.147 55.1991 787.799 67.8414 803.506 67.8414Z" fill="#213555"/>
</svg>
